<svg version="1.2" xmlns="http://www.w3.org/2000/svg" viewBox="0 0 24 24" width="24" height="24">
	<title>behance-svg</title>
	<style>
		.s0 { fill: #c6c6c6 } 
	</style>
	<path id="Layer" fill-rule="evenodd" class="s0" d="m22 7h-7v-2h7zm1.7 10c-0.4 1.3-2 3-5.1 3-3 0-5.5-1.7-5.5-5.7 0-3.9 2.3-5.9 5.4-5.9 3.1 0 5 1.8 5.4 4.4 0.1 0.5 0.1 1.2 0.1 2.2h-8c0.1 3.2 3.5 3.3 4.6 2zm-7.7-4h4.9c-0.1-1.5-1.1-2.2-2.4-2.2-1.5 0-2.3 0.7-2.5 2.2zm-9.6 7h-6.5v-15h7c5.5 0.1 5.6 5.5 2.7 6.9 3.5 1.3 3.6 8.1-3.2 8.1zm-3.5-9h3.6c2.5 0 2.9-3-0.3-3h-3.3zm3.4 3h-3.4v3h3.4c3 0 2.8-3 0-3z"/>
</svg>